<?xml version="1.0" encoding="utf-8"?>
<!-- Generator: Adobe Illustrator 19.2.0, SVG Export Plug-In . SVG Version: 6.00 Build 0)  -->
<!DOCTYPE svg PUBLIC "-//W3C//DTD SVG 1.1//EN" "http://www.w3.org/Graphics/SVG/1.1/DTD/svg11.dtd">
<svg version="1.1" id="icon" xmlns="http://www.w3.org/2000/svg" xmlns:xlink="http://www.w3.org/1999/xlink" x="0px" y="0px"
	 viewBox="0 0 92 88.7" enable-background="new 0 0 92 88.7" xml:space="preserve">
<g>
	<g opacity="0.5">
		<circle fill="#B0A9A7" cx="47.7" cy="44.3" r="44.3"/>
	</g>
	<g>
		<g>
			<g>
				<linearGradient id="SVGID_1_" gradientUnits="userSpaceOnUse" x1="25.8322" y1="20.5384" x2="25.8322" y2="87.6462">
					<stop  offset="0" style="stop-color:#404040"/>
					<stop  offset="1.794404e-02" style="stop-color:#414141"/>
					<stop  offset="0.4479" style="stop-color:#5A5553"/>
					<stop  offset="0.7901" style="stop-color:#6A625F"/>
					<stop  offset="1" style="stop-color:#716764"/>
				</linearGradient>
				<circle fill="url(#SVGID_1_)" cx="25.8" cy="84.8" r="3"/>
			</g>
			<defs>
				<filter id="Adobe_OpacityMaskFilter" filterUnits="userSpaceOnUse" x="22.9" y="81.8" width="6" height="6">
					
						<feColorMatrix  type="matrix" values="-1 0 0 0 1  0 -1 0 0 1  0 0 -1 0 1  0 0 0 1 0" color-interpolation-filters="sRGB" result="source"/>
				</filter>
			</defs>
			<mask maskUnits="userSpaceOnUse" x="22.9" y="81.8" width="6" height="6" id="SVGID_2_">
				<g filter="url(#Adobe_OpacityMaskFilter)">
					
						<image overflow="visible" width="42" height="42" xlink:href="72F4D509061AD1F7.jpg"  transform="matrix(0.24 0 0 0.24 20.8541 79.78)">
					</image>
				</g>
			</mask>
			<g mask="url(#SVGID_2_)">
				<circle fill="#404040" cx="25.8" cy="84.8" r="3"/>
			</g>
		</g>
		<g>
			<g>
				<linearGradient id="SVGID_3_" gradientUnits="userSpaceOnUse" x1="64.9024" y1="20.5384" x2="64.9024" y2="87.6462">
					<stop  offset="0" style="stop-color:#404040"/>
					<stop  offset="1.794404e-02" style="stop-color:#414141"/>
					<stop  offset="0.4479" style="stop-color:#5A5553"/>
					<stop  offset="0.7901" style="stop-color:#6A625F"/>
					<stop  offset="1" style="stop-color:#716764"/>
				</linearGradient>
				<circle fill="url(#SVGID_3_)" cx="64.9" cy="78.9" r="3"/>
			</g>
			<defs>
				<filter id="Adobe_OpacityMaskFilter_1_" filterUnits="userSpaceOnUse" x="61.9" y="75.9" width="6" height="6">
					
						<feColorMatrix  type="matrix" values="-1 0 0 0 1  0 -1 0 0 1  0 0 -1 0 1  0 0 0 1 0" color-interpolation-filters="sRGB" result="source"/>
				</filter>
			</defs>
			<mask maskUnits="userSpaceOnUse" x="61.9" y="75.9" width="6" height="6" id="SVGID_4_">
				<g filter="url(#Adobe_OpacityMaskFilter_1_)">
					
						<image overflow="visible" width="42" height="42" xlink:href="72F4D509061AD1F5.jpg"  transform="matrix(0.24 0 0 0.24 59.9244 73.9033)">
					</image>
				</g>
			</mask>
			<g mask="url(#SVGID_4_)">
				<circle fill="#404040" cx="64.9" cy="78.9" r="3"/>
			</g>
		</g>
	</g>
	<linearGradient id="SVGID_5_" gradientUnits="userSpaceOnUse" x1="35.5959" y1="35.9877" x2="35.5959" y2="22.0878">
		<stop  offset="0" style="stop-color:#B0A9A7"/>
		<stop  offset="1" style="stop-color:#CCCCCC"/>
	</linearGradient>
	<path fill="url(#SVGID_5_)" d="M64.9,28.1c0,0.2-0.2,0.7-0.8,0.8L63.7,29l-46.8,7c-0.2,0-0.4,0-0.6-0.1L14.7,35L6.9,31
		c-0.6-0.3-0.5-0.9-0.5-1c0-0.2,0.2-0.7,0.8-0.8l47.2-7c0,0,0.1,0,0.1,0c0.2,0,0.3,0,0.5,0.1l9.4,4.9C64.9,27.4,64.9,28,64.9,28.1z"
		/>
	<linearGradient id="SVGID_6_" gradientUnits="userSpaceOnUse" x1="38.65" y1="78.24" x2="38.65" y2="16.6227">
		<stop  offset="0" style="stop-color:#B0A9A7"/>
		<stop  offset="1" style="stop-color:#CCCCCC"/>
	</linearGradient>
	<path fill="url(#SVGID_6_)" d="M16.5,78.2L4.1,71.8l0,0l54-8.3c1-0.1,1.7-1,1.7-2v0l8.4,0.3c0,0,0.1,0,0.1,0c0.8,0,1.5-0.3,2.1-0.8
		c0.6-0.6,0.9-1.3,0.9-2.1l0-27.5c0-0.9-0.4-1.7-1-2.3c-0.7-0.6-1.5-0.8-2.4-0.7l-1,0.1c0,0,0-0.1,0-0.1c0.2-1.3-0.4-2.5-1.6-3.1
		l-5.7-3c0.1-0.3,0.2-0.6,0.2-0.9v-4.8c0.3,0.7,0.7,1.3,1.4,1.6l11.5,6l0,0c0.2,0.1,0.4,0.2,0.5,0.2l0,45.2L16.5,78.2z"/>
	<linearGradient id="SVGID_7_" gradientUnits="userSpaceOnUse" x1="61.5659" y1="17.5914" x2="77.7076" y2="17.5914">
		<stop  offset="0" style="stop-color:#B0A9A7"/>
		<stop  offset="1" style="stop-color:#CCCCCC"/>
	</linearGradient>
	<path fill="url(#SVGID_7_)" d="M74.5,22.4c-0.3,0.1-0.6,0.1-0.9,0l-11.5-6c-0.4-0.2-0.5-0.6-0.5-0.8c0-0.2,0-0.6,0.4-0.9l2.7-2
		c0.3-0.2,0.7-0.2,1-0.1l11.5,6c0.7,0.3,0.7,1.3,0.1,1.7L74.5,22.4z"/>
	<linearGradient id="SVGID_8_" gradientUnits="userSpaceOnUse" x1="59.7177" y1="30.3555" x2="59.7177" y2="22.0871">
		<stop  offset="0" style="stop-color:#B0A9A7"/>
		<stop  offset="1" style="stop-color:#CCCCCC"/>
	</linearGradient>
	<path opacity="0.46" fill="url(#SVGID_8_)" d="M64.3,27.1l-9.4-4.9c-0.1-0.1-0.2-0.1-0.3-0.1v8.3l9.1-1.4l0.4-0.1
		c0.7-0.1,0.8-0.7,0.8-0.8C64.9,28,64.9,27.4,64.3,27.1z"/>
	<path opacity="0.8" fill="#F5F5F5" d="M59.3,62.8c0.3-0.3,0.5-0.8,0.5-1.3v0l8.4,0.3c0,0,0.1,0,0.1,0c0.8,0,1.5-0.3,2.1-0.8
		c0.6-0.6,0.9-1.3,0.9-2.1l0-27.5c0-0.9-0.4-1.7-1-2.3c-0.7-0.6-1.5-0.8-2.4-0.7l-1,0.1c0,0,0-0.1,0-0.1c0.2-1.3-0.4-2.5-1.6-3.1
		l-5.7-3c0.1-0.3,0.2-0.6,0.2-0.9v-4.8c0.3,0.7,0.7,1.3,1.4,1.6l11.5,6l0,0c0.2,0.1,0.4,0.2,0.5,0.2l0,45.2L59.3,62.8z"/>
	<g>
		<g>
			<linearGradient id="SVGID_9_" gradientUnits="userSpaceOnUse" x1="40.3104" y1="11.6165" x2="40.3104" y2="82.1214">
				<stop  offset="0" style="stop-color:#404040"/>
				<stop  offset="1.794404e-02" style="stop-color:#414141"/>
				<stop  offset="0.4479" style="stop-color:#5A5553"/>
				<stop  offset="0.7901" style="stop-color:#6A625F"/>
				<stop  offset="1" style="stop-color:#716764"/>
			</linearGradient>
			<path fill="url(#SVGID_9_)" d="M80.6,19.3c-0.1-0.7-0.4-1.3-1.1-1.6l-13.4-7c-0.7-0.3-1.5-0.3-2.1,0.2l-5.4,3.9
				c-0.5,0.4-0.8,1-0.8,1.6v5.1l-2.2-1.2c-0.4-0.2-0.8-0.3-1.2-0.2L1.7,27.9c-1,0.1-1.7,1-1.7,2v20.5c0,0.7,0.4,1.4,1.1,1.8l0.5,0.3
				c0,0,0,0,0,0l11.4,5.9c0,0,0,0,0,0l2.9,1.5c0.1,0,0.2,0.1,0.3,0.1c0.1,0,0.1,0,0.2,0l1.7,0.1c0.1,0,0.1,0,0.2,0l39.5,1.4v0.1
				l-54,8.3C3,70,2.3,70.6,2.2,71.5c-0.1,0.9,0.3,1.7,1,2.1l4.3,2.2c-0.6,0.5-1,1.3-1,2.2c0,1.6,1.3,3,3,3c1.5,0,2.8-1.2,3-2.7
				l3.2,1.7c0.3,0.1,0.6,0.2,0.9,0.2c0.1,0,0.2,0,0.3,0l56.7-8.7c1-0.1,1.7-1,1.7-2l0-45.2l0.4-0.3c0.1,0,0.2-0.1,0.2-0.1l2.7-2
				c0.1-0.1,0.1-0.1,0.2-0.2l1.1-0.8C80.4,20.7,80.7,20,80.6,19.3z M6.4,29.9c0-0.2,0.2-0.7,0.8-0.8l47.2-7c0,0,0.1,0,0.1,0
				c0.2,0,0.3,0,0.5,0.1l9.4,4.9c0.6,0.3,0.5,0.9,0.5,1c0,0.2-0.2,0.7-0.8,0.8L63.7,29l-46.8,7c-0.2,0-0.4,0-0.6-0.1l-1.6-0.8
				L6.9,31C6.3,30.7,6.3,30.1,6.4,29.9z M18.3,58.1L17,58c-0.1,0-0.3,0-0.4-0.1c-0.5-0.2-1.8-0.8-2.7-1.3l-11.5-6
				C2.2,50.5,2,50.2,2,49.8V32.3c0-0.5,0.3-0.8,0.5-0.8c0.1-0.1,0.3-0.1,0.5-0.1c0.1,0,0.3,0,0.5,0.1L6,32.7c0,0,0,0,0,0l7.8,4.1
				l1.1,0.6l1.1,0.5c0.2,0.1,0.4,0.1,0.6,0.1l1.8-0.2L64,31l0.4-0.1v0l3.8-0.6c0.3,0,0.5,0,0.8,0.2c0.2,0.2,0.4,0.6,0.4,0.8l0,27.4
				c0,0.2-0.1,0.5-0.2,0.7c-0.2,0.2-0.5,0.4-0.8,0.3L58,59.5c0,0-0.1,0-0.1,0L18.3,58.1z M73.2,69.6l-56.7,8.7L4.1,71.8l0,0l54-8.3
				c1-0.1,1.7-1,1.7-2v0l8.4,0.3c0,0,0.1,0,0.1,0c0.8,0,1.5-0.3,2.1-0.8c0.6-0.6,0.9-1.3,0.9-2.1l0-27.5c0,0,0,0,0,0v-2.3
				c0-0.4-0.2-0.7-0.5-0.9l-5.4-2.8c0,0-0.1,0-0.1,0l-0.5-0.3l-2.8-1.5l0.1,0l-2.4-1.3c0.1-0.3,0.2-0.6,0.2-0.9v-4.8
				c0.3,0.7,0.7,1.3,1.4,1.6l11.5,6l0,0c0.2,0.1,0.4,0.2,0.5,0.2L73.2,69.6z M77.3,20.4l-2.8,2c-0.3,0.1-0.6,0.1-0.9,0l-11.5-6
				c-0.4-0.2-0.5-0.6-0.5-0.8c0-0.2,0-0.6,0.4-0.9l2.7-2c0.3-0.2,0.7-0.2,1-0.1l11.5,6C77.9,19.1,77.9,20,77.3,20.4z"/>
		</g>
		<defs>
			<filter id="Adobe_OpacityMaskFilter_2_" filterUnits="userSpaceOnUse" x="0" y="10.5" width="80.6" height="70.5">
				
					<feColorMatrix  type="matrix" values="-1 0 0 0 1  0 -1 0 0 1  0 0 -1 0 1  0 0 0 1 0" color-interpolation-filters="sRGB" result="source"/>
			</filter>
		</defs>
		<mask maskUnits="userSpaceOnUse" x="0" y="10.5" width="80.6" height="70.5" id="SVGID_10_">
			<g filter="url(#Adobe_OpacityMaskFilter_2_)">
				
					<image overflow="visible" width="353" height="311" xlink:href="72F4D509061AD1FB.jpg"  transform="matrix(0.24 0 0 0.24 -2 8.4808)">
				</image>
			</g>
		</mask>
		<g mask="url(#SVGID_10_)">
			<path fill="#404040" d="M80.6,19.3c-0.1-0.7-0.4-1.3-1.1-1.6l-13.4-7c-0.7-0.3-1.5-0.3-2.1,0.2l-5.4,3.9c-0.5,0.4-0.8,1-0.8,1.6
				v5.1l-2.2-1.2c-0.4-0.2-0.8-0.3-1.2-0.2L1.7,27.9c-1,0.1-1.7,1-1.7,2v20.5c0,0.7,0.4,1.4,1.1,1.8l0.5,0.3c0,0,0,0,0,0l11.4,5.9
				c0,0,0,0,0,0l2.9,1.5c0.1,0,0.2,0.1,0.3,0.1c0.1,0,0.1,0,0.2,0l1.7,0.1c0.1,0,0.1,0,0.2,0l39.5,1.4v0.1l-54,8.3
				C3,70,2.3,70.6,2.2,71.5c-0.1,0.9,0.3,1.7,1,2.1l4.3,2.2c-0.6,0.5-1,1.3-1,2.2c0,1.6,1.3,3,3,3c1.5,0,2.8-1.2,3-2.7l3.2,1.7
				c0.3,0.1,0.6,0.2,0.9,0.2c0.1,0,0.2,0,0.3,0l56.7-8.7c1-0.1,1.7-1,1.7-2l0-45.2l0.4-0.3c0.1,0,0.2-0.1,0.2-0.1l2.7-2
				c0.1-0.1,0.1-0.1,0.2-0.2l1.1-0.8C80.4,20.7,80.7,20,80.6,19.3z M6.4,29.9c0-0.2,0.2-0.7,0.8-0.8l47.2-7c0,0,0.1,0,0.1,0
				c0.2,0,0.3,0,0.5,0.1l9.4,4.9c0.6,0.3,0.5,0.9,0.5,1c0,0.2-0.2,0.7-0.8,0.8L63.7,29l-46.8,7c-0.2,0-0.4,0-0.6-0.1l-1.6-0.8
				L6.9,31C6.3,30.7,6.3,30.1,6.4,29.9z M18.3,58.1L17,58c-0.1,0-0.3,0-0.4-0.1c-0.5-0.2-1.8-0.8-2.7-1.3l-11.5-6
				C2.2,50.5,2,50.2,2,49.8V32.3c0-0.5,0.3-0.8,0.5-0.8c0.1-0.1,0.3-0.1,0.5-0.1c0.1,0,0.3,0,0.5,0.1L6,32.7c0,0,0,0,0,0l7.8,4.1
				l1.1,0.6l1.1,0.5c0.2,0.1,0.4,0.1,0.6,0.1l1.8-0.2L64,31l0.4-0.1v0l3.8-0.6c0.3,0,0.5,0,0.8,0.2c0.2,0.2,0.4,0.6,0.4,0.8l0,27.4
				c0,0.2-0.1,0.5-0.2,0.7c-0.2,0.2-0.5,0.4-0.8,0.3L58,59.5c0,0-0.1,0-0.1,0L18.3,58.1z M73.2,69.6l-56.7,8.7L4.1,71.8l0,0l54-8.3
				c1-0.1,1.7-1,1.7-2v0l8.4,0.3c0,0,0.1,0,0.1,0c0.8,0,1.5-0.3,2.1-0.8c0.6-0.6,0.9-1.3,0.9-2.1l0-27.5c0,0,0,0,0,0v-2.3
				c0-0.4-0.2-0.7-0.5-0.9l-5.4-2.8c0,0-0.1,0-0.1,0l-0.5-0.3l-2.8-1.5l0.1,0l-2.4-1.3c0.1-0.3,0.2-0.6,0.2-0.9v-4.8
				c0.3,0.7,0.7,1.3,1.4,1.6l11.5,6l0,0c0.2,0.1,0.4,0.2,0.5,0.2L73.2,69.6z M77.3,20.4l-2.8,2c-0.3,0.1-0.6,0.1-0.9,0l-11.5-6
				c-0.4-0.2-0.5-0.6-0.5-0.8c0-0.2,0-0.6,0.4-0.9l2.7-2c0.3-0.2,0.7-0.2,1-0.1l11.5,6C77.9,19.1,77.9,20,77.3,20.4z"/>
		</g>
	</g>
	<linearGradient id="SVGID_11_" gradientUnits="userSpaceOnUse" x1="35.626" y1="59.8459" x2="35.626" y2="30.3883">
		<stop  offset="0" style="stop-color:#B0A9A7"/>
		<stop  offset="1" style="stop-color:#CCCCCC"/>
	</linearGradient>
	<path opacity="0.5" fill="url(#SVGID_11_)" d="M18.3,58.1L17,58.1c-0.1,0-0.3,0-0.4-0.1c-0.5-0.2-1.8-0.8-2.7-1.3l-11.5-6
		C2.2,50.5,2,50.2,2,49.8V32.3c0-0.5,0.3-0.8,0.5-0.8c0.1-0.1,0.3-0.1,0.5-0.1c0.1,0,0.3,0,0.5,0.1L6,32.8c0,0,0,0,0,0l7.8,4.1
		l1.1,0.6l1.1,0.5c0.2,0.1,0.4,0.1,0.6,0.1l1.8-0.2L64,31l0.4-0.1v0l3.8-0.6c0.3,0,0.5,0,0.8,0.2c0.2,0.2,0.4,0.6,0.4,0.8l0,27.4
		c0,0.2-0.1,0.5-0.2,0.7c-0.2,0.2-0.5,0.4-0.8,0.3L58,59.5c0,0-0.1,0-0.1,0L18.3,58.1z"/>
	<path fill="#F5F5F5" d="M2.5,50.7C2.2,50.5,2,50.2,2,49.8V32.3c0-0.5,0.3-0.8,0.5-0.8c0.1-0.1,0.3-0.1,0.5-0.1c0.1,0,0.3,0,0.5,0.1
		L6,32.8c0,0,0,0,0,0l7.8,4.1l1.1,0.6c0.3,0.2,0.5,0.5,0.5,0.9v17.5c0,0.5-0.3,0.8-0.5,0.8c-0.1,0.1-0.5,0.3-1,0L2.5,50.7z"/>
</g>
</svg>
